<mxfile host="65bd71144e">
    <diagram id="0Psh6iuW7GssUp9ffrjz" name="Page-1">
        <mxGraphModel dx="2201" dy="1956" grid="1" gridSize="10" guides="1" tooltips="1" connect="1" arrows="1" fold="1" page="1" pageScale="1" pageWidth="827" pageHeight="1169" background="#ffffff" math="0" shadow="0">
            <root>
                <mxCell id="0"/>
                <mxCell id="1" parent="0"/>
                <mxCell id="62" style="edgeStyle=none;html=1;exitX=0.008;exitY=0.569;exitDx=0;exitDy=0;entryX=1;entryY=0.5;entryDx=0;entryDy=0;labelBackgroundColor=#000000;labelBorderColor=#000000;fontSize=15;fontColor=#000000;strokeColor=#000000;exitPerimeter=0;rounded=0;" parent="1" edge="1">
                    <mxGeometry relative="1" as="geometry">
                        <mxPoint x="-426.96000000000004" y="-555.1700000000001" as="sourcePoint"/>
                        <mxPoint x="-588" y="-555" as="targetPoint"/>
                    </mxGeometry>
                </mxCell>
                <mxCell id="63" value="Registration&lt;br&gt;1.0" style="shape=ellipse;html=1;dashed=0;whitespace=wrap;perimeter=ellipsePerimeter;labelBackgroundColor=#FFFFFF;fontSize=15;fontColor=#000000;strokeColor=#000000;fillColor=#FFFFFF;fontStyle=1" parent="1" vertex="1">
                    <mxGeometry x="-428" y="-600" width="130" height="70" as="geometry"/>
                </mxCell>
                <mxCell id="64" style="edgeStyle=elbowEdgeStyle;html=1;exitX=0.008;exitY=0.597;exitDx=0;exitDy=0;labelBackgroundColor=#000000;labelBorderColor=#000000;fontSize=15;fontColor=#000000;strokeColor=#000000;exitPerimeter=0;startArrow=none;rounded=0;" parent="1" edge="1">
                    <mxGeometry relative="1" as="geometry">
                        <mxPoint x="-426.96000000000004" y="-468.21000000000004" as="sourcePoint"/>
                        <mxPoint x="-606" y="-540" as="targetPoint"/>
                        <Array as="points">
                            <mxPoint x="-606" y="-487"/>
                        </Array>
                    </mxGeometry>
                </mxCell>
                <mxCell id="65" style="edgeStyle=elbowEdgeStyle;html=1;labelBackgroundColor=#000000;labelBorderColor=#000000;fontSize=15;fontColor=#000000;strokeColor=#000000;exitX=0.005;exitY=0.449;exitDx=0;exitDy=0;exitPerimeter=0;rounded=0;" parent="1" target="79" edge="1">
                    <mxGeometry relative="1" as="geometry">
                        <mxPoint x="-427.35000000000036" y="-384.5699999999997" as="sourcePoint"/>
                        <mxPoint x="-651" y="-539" as="targetPoint"/>
                        <Array as="points">
                            <mxPoint x="-651" y="-459"/>
                        </Array>
                    </mxGeometry>
                </mxCell>
                <mxCell id="66" value="Search Product&lt;br&gt;3.0" style="shape=ellipse;html=1;dashed=0;whitespace=wrap;perimeter=ellipsePerimeter;labelBackgroundColor=#FFFFFF;fontSize=15;fontColor=#000000;strokeColor=#000000;fillColor=#FFFFFF;fontStyle=1" parent="1" vertex="1">
                    <mxGeometry x="-428" y="-420" width="130" height="70" as="geometry"/>
                </mxCell>
                <mxCell id="67" style="edgeStyle=elbowEdgeStyle;html=1;exitX=0;exitY=0.5;exitDx=0;exitDy=0;labelBackgroundColor=#000000;labelBorderColor=#000000;fontSize=15;fontColor=#000000;strokeColor=#000000;rounded=0;entryX=0.5;entryY=1;entryDx=0;entryDy=0;" parent="1" target="79" edge="1">
                    <mxGeometry relative="1" as="geometry">
                        <mxPoint x="-428.0000000000018" y="-288" as="sourcePoint"/>
                        <mxPoint x="-698" y="-533" as="targetPoint"/>
                        <Array as="points">
                            <mxPoint x="-698" y="-513"/>
                            <mxPoint x="-728" y="-403"/>
                        </Array>
                    </mxGeometry>
                </mxCell>
                <mxCell id="68" value="Manage&lt;br&gt;Account&lt;br&gt;4.0" style="shape=ellipse;html=1;dashed=0;whitespace=wrap;perimeter=ellipsePerimeter;labelBackgroundColor=#FFFFFF;fontSize=15;fontColor=#000000;strokeColor=#000000;fillColor=#FFFFFF;fontStyle=1" parent="1" vertex="1">
                    <mxGeometry x="-428" y="-330" width="130" height="70" as="geometry"/>
                </mxCell>
                <mxCell id="69" style="edgeStyle=elbowEdgeStyle;html=1;labelBackgroundColor=#000000;labelBorderColor=#000000;fontSize=15;fontColor=#000000;strokeColor=#000000;exitX=0;exitY=0.5;exitDx=0;exitDy=0;rounded=0;" parent="1" target="79" edge="1">
                    <mxGeometry relative="1" as="geometry">
                        <mxPoint x="-428.0000000000018" y="-200" as="sourcePoint"/>
                        <mxPoint x="-749" y="-535" as="targetPoint"/>
                        <Array as="points">
                            <mxPoint x="-749" y="-374"/>
                        </Array>
                    </mxGeometry>
                </mxCell>
                <mxCell id="70" value="Make Order&lt;br&gt;5.0" style="shape=ellipse;html=1;dashed=0;whitespace=wrap;perimeter=ellipsePerimeter;labelBackgroundColor=#FFFFFF;fontSize=15;fontColor=#000000;strokeColor=#000000;fillColor=#FFFFFF;fontStyle=1" parent="1" vertex="1">
                    <mxGeometry x="-428" y="-240" width="130" height="70" as="geometry"/>
                </mxCell>
                <mxCell id="71" style="edgeStyle=elbowEdgeStyle;html=1;exitX=0.011;exitY=0.59;exitDx=0;exitDy=0;labelBackgroundColor=#000000;labelBorderColor=#000000;fontSize=15;fontColor=#000000;strokeColor=#000000;exitPerimeter=0;rounded=0;entryX=0.05;entryY=1;entryDx=0;entryDy=0;entryPerimeter=0;" parent="1" target="79" edge="1">
                    <mxGeometry relative="1" as="geometry">
                        <mxPoint x="-420.5699999999997" y="-102.69999999999982" as="sourcePoint"/>
                        <mxPoint x="-797" y="-534" as="targetPoint"/>
                        <Array as="points">
                            <mxPoint x="-797" y="-287"/>
                        </Array>
                    </mxGeometry>
                </mxCell>
                <mxCell id="72" value="Make Payment&lt;br&gt;6.0" style="shape=ellipse;html=1;dashed=0;whitespace=wrap;perimeter=ellipsePerimeter;labelBackgroundColor=#FFFFFF;fontSize=15;fontColor=#000000;strokeColor=#000000;fillColor=#FFFFFF;fontStyle=1" parent="1" vertex="1">
                    <mxGeometry x="-428" y="-150" width="130" height="70" as="geometry"/>
                </mxCell>
                <mxCell id="73" style="edgeStyle=none;html=1;exitX=1.002;exitY=0.295;exitDx=0;exitDy=0;labelBackgroundColor=#000000;labelBorderColor=#000000;fontSize=15;fontColor=#000000;strokeColor=#000000;exitPerimeter=0;entryX=0.013;entryY=0.357;entryDx=0;entryDy=0;entryPerimeter=0;" parent="1" source="79" target="63" edge="1">
                    <mxGeometry relative="1" as="geometry">
                        <mxPoint x="-586" y="-576" as="sourcePoint"/>
                        <mxPoint x="-428" y="-575" as="targetPoint"/>
                    </mxGeometry>
                </mxCell>
                <mxCell id="74" style="edgeStyle=elbowEdgeStyle;html=1;exitX=0.928;exitY=0.989;exitDx=0;exitDy=0;labelBackgroundColor=#000000;labelBorderColor=#000000;fontSize=15;fontColor=#000000;strokeColor=#000000;exitPerimeter=0;rounded=0;entryX=0.008;entryY=0.366;entryDx=0;entryDy=0;entryPerimeter=0;" parent="1" target="80" edge="1">
                    <mxGeometry relative="1" as="geometry">
                        <mxPoint x="-595.8000000000002" y="-550.5499999999997" as="sourcePoint"/>
                        <mxPoint x="-428" y="-484" as="targetPoint"/>
                        <Array as="points">
                            <mxPoint x="-595" y="-500"/>
                        </Array>
                    </mxGeometry>
                </mxCell>
                <mxCell id="75" style="edgeStyle=elbowEdgeStyle;html=1;exitX=0.75;exitY=1;exitDx=0;exitDy=0;labelBackgroundColor=#000000;labelBorderColor=#000000;fontSize=15;fontColor=#000000;strokeColor=#000000;rounded=0;entryX=0.041;entryY=0.269;entryDx=0;entryDy=0;entryPerimeter=0;" parent="1" target="66" edge="1">
                    <mxGeometry relative="1" as="geometry">
                        <mxPoint x="-639" y="-541.9999999999995" as="sourcePoint"/>
                        <mxPoint x="-428" y="-401" as="targetPoint"/>
                        <Array as="points">
                            <mxPoint x="-639" y="-452"/>
                        </Array>
                    </mxGeometry>
                </mxCell>
                <mxCell id="76" style="edgeStyle=elbowEdgeStyle;html=1;exitX=0.5;exitY=1;exitDx=0;exitDy=0;labelBackgroundColor=#000000;labelBorderColor=#000000;fontSize=15;fontColor=#000000;strokeColor=#000000;rounded=0;entryX=0.018;entryY=0.34;entryDx=0;entryDy=0;entryPerimeter=0;" parent="1" target="68" edge="1">
                    <mxGeometry relative="1" as="geometry">
                        <mxPoint x="-686" y="-551" as="sourcePoint"/>
                        <mxPoint x="-428" y="-306" as="targetPoint"/>
                        <Array as="points">
                            <mxPoint x="-686" y="-321"/>
                        </Array>
                    </mxGeometry>
                </mxCell>
                <mxCell id="77" style="edgeStyle=elbowEdgeStyle;html=1;exitX=0.25;exitY=1;exitDx=0;exitDy=0;labelBackgroundColor=#000000;labelBorderColor=#000000;fontSize=15;fontColor=#000000;strokeColor=#000000;rounded=0;entryX=0.024;entryY=0.308;entryDx=0;entryDy=0;entryPerimeter=0;" parent="1" target="70" edge="1">
                    <mxGeometry relative="1" as="geometry">
                        <mxPoint x="-734" y="-553" as="sourcePoint"/>
                        <mxPoint x="-428" y="-218" as="targetPoint"/>
                        <Array as="points">
                            <mxPoint x="-734" y="-363"/>
                        </Array>
                    </mxGeometry>
                </mxCell>
                <mxCell id="78" style="edgeStyle=elbowEdgeStyle;html=1;exitX=0.13;exitY=1;exitDx=0;exitDy=0;labelBackgroundColor=#000000;labelBorderColor=#000000;fontSize=15;fontColor=#000000;strokeColor=#000000;exitPerimeter=0;rounded=0;entryX=0.007;entryY=0.385;entryDx=0;entryDy=0;entryPerimeter=0;" parent="1" target="72" edge="1">
                    <mxGeometry relative="1" as="geometry">
                        <mxPoint x="-782.1000000000004" y="-548" as="sourcePoint"/>
                        <mxPoint x="-428" y="-123" as="targetPoint"/>
                        <Array as="points">
                            <mxPoint x="-782" y="-508"/>
                            <mxPoint x="-782" y="-438"/>
                        </Array>
                    </mxGeometry>
                </mxCell>
                <mxCell id="79" value="&lt;font color=&quot;#000000&quot; size=&quot;1&quot;&gt;&lt;b style=&quot;font-size: 15px&quot;&gt;CUSTOMER&lt;/b&gt;&lt;/font&gt;" style="html=1;dashed=0;whitespace=wrap;fillColor=#FFFFFF;strokeColor=#000000;" parent="1" vertex="1">
                    <mxGeometry x="-808" y="-590" width="220" height="50" as="geometry"/>
                </mxCell>
                <mxCell id="80" value="Login&lt;br&gt;2.0" style="shape=ellipse;html=1;dashed=0;whitespace=wrap;perimeter=ellipsePerimeter;labelBackgroundColor=#FFFFFF;fontSize=15;fontColor=#000000;strokeColor=#000000;fillColor=#FFFFFF;fontStyle=1" parent="1" vertex="1">
                    <mxGeometry x="-428" y="-510" width="130" height="70" as="geometry"/>
                </mxCell>
                <mxCell id="81" value="" style="endArrow=classic;html=1;rounded=0;labelBackgroundColor=#000000;labelBorderColor=#000000;fontSize=15;fontColor=#000000;strokeColor=#000000;" parent="1" edge="1">
                    <mxGeometry width="50" height="50" relative="1" as="geometry">
                        <mxPoint x="-298" y="-580" as="sourcePoint"/>
                        <mxPoint x="-138" y="-580" as="targetPoint"/>
                    </mxGeometry>
                </mxCell>
                <mxCell id="82" value="" style="endArrow=classic;html=1;rounded=0;labelBackgroundColor=#000000;labelBorderColor=#000000;fontSize=15;fontColor=#000000;strokeColor=#000000;" parent="1" edge="1">
                    <mxGeometry width="50" height="50" relative="1" as="geometry">
                        <mxPoint x="-138" y="-560" as="sourcePoint"/>
                        <mxPoint x="-298" y="-560" as="targetPoint"/>
                    </mxGeometry>
                </mxCell>
                <mxCell id="83" value="" style="endArrow=classic;html=1;rounded=0;labelBackgroundColor=#000000;labelBorderColor=#000000;fontSize=15;fontColor=#000000;strokeColor=#000000;" parent="1" edge="1">
                    <mxGeometry width="50" height="50" relative="1" as="geometry">
                        <mxPoint x="-298" y="-490.5" as="sourcePoint"/>
                        <mxPoint x="-138" y="-490.5" as="targetPoint"/>
                    </mxGeometry>
                </mxCell>
                <mxCell id="84" value="" style="endArrow=classic;html=1;rounded=0;labelBackgroundColor=#000000;labelBorderColor=#000000;fontSize=15;fontColor=#000000;strokeColor=#000000;" parent="1" edge="1">
                    <mxGeometry width="50" height="50" relative="1" as="geometry">
                        <mxPoint x="-138" y="-460.5" as="sourcePoint"/>
                        <mxPoint x="-298" y="-460.5" as="targetPoint"/>
                    </mxGeometry>
                </mxCell>
                <mxCell id="85" value="" style="endArrow=classic;html=1;rounded=0;labelBackgroundColor=#000000;labelBorderColor=#000000;fontSize=15;fontColor=#000000;strokeColor=#000000;" parent="1" edge="1">
                    <mxGeometry width="50" height="50" relative="1" as="geometry">
                        <mxPoint x="-298" y="-400.5" as="sourcePoint"/>
                        <mxPoint x="-138" y="-400.5" as="targetPoint"/>
                    </mxGeometry>
                </mxCell>
                <mxCell id="86" value="" style="endArrow=classic;html=1;rounded=0;labelBackgroundColor=#000000;labelBorderColor=#000000;fontSize=15;fontColor=#000000;strokeColor=#000000;" parent="1" edge="1">
                    <mxGeometry width="50" height="50" relative="1" as="geometry">
                        <mxPoint x="-138" y="-370.5" as="sourcePoint"/>
                        <mxPoint x="-298" y="-370.5" as="targetPoint"/>
                    </mxGeometry>
                </mxCell>
                <mxCell id="87" value="" style="endArrow=classic;html=1;rounded=0;labelBackgroundColor=#000000;labelBorderColor=#000000;fontSize=15;fontColor=#000000;strokeColor=#000000;" parent="1" edge="1">
                    <mxGeometry width="50" height="50" relative="1" as="geometry">
                        <mxPoint x="-298" y="-310.5" as="sourcePoint"/>
                        <mxPoint x="-138" y="-310.5" as="targetPoint"/>
                    </mxGeometry>
                </mxCell>
                <mxCell id="88" value="" style="endArrow=classic;html=1;rounded=0;labelBackgroundColor=#000000;labelBorderColor=#000000;fontSize=15;fontColor=#000000;strokeColor=#000000;" parent="1" edge="1">
                    <mxGeometry width="50" height="50" relative="1" as="geometry">
                        <mxPoint x="-138" y="-280.5" as="sourcePoint"/>
                        <mxPoint x="-298" y="-280.5" as="targetPoint"/>
                    </mxGeometry>
                </mxCell>
                <mxCell id="89" value="" style="endArrow=classic;html=1;rounded=0;labelBackgroundColor=#000000;labelBorderColor=#000000;fontSize=15;fontColor=#000000;strokeColor=#000000;" parent="1" edge="1">
                    <mxGeometry width="50" height="50" relative="1" as="geometry">
                        <mxPoint x="-298" y="-220.5" as="sourcePoint"/>
                        <mxPoint x="-138" y="-220.5" as="targetPoint"/>
                    </mxGeometry>
                </mxCell>
                <mxCell id="90" value="" style="endArrow=classic;html=1;rounded=0;labelBackgroundColor=#000000;labelBorderColor=#000000;fontSize=15;fontColor=#000000;strokeColor=#000000;" parent="1" edge="1">
                    <mxGeometry width="50" height="50" relative="1" as="geometry">
                        <mxPoint x="-138" y="-190.5" as="sourcePoint"/>
                        <mxPoint x="-298" y="-190.5" as="targetPoint"/>
                    </mxGeometry>
                </mxCell>
                <mxCell id="91" value="" style="endArrow=classic;html=1;rounded=0;labelBackgroundColor=#000000;labelBorderColor=#000000;fontSize=15;fontColor=#000000;strokeColor=#000000;" parent="1" edge="1">
                    <mxGeometry width="50" height="50" relative="1" as="geometry">
                        <mxPoint x="-298" y="-130.5" as="sourcePoint"/>
                        <mxPoint x="-138" y="-130.5" as="targetPoint"/>
                    </mxGeometry>
                </mxCell>
                <mxCell id="92" value="" style="endArrow=classic;html=1;rounded=0;labelBackgroundColor=#000000;labelBorderColor=#000000;fontSize=15;fontColor=#000000;strokeColor=#000000;" parent="1" edge="1">
                    <mxGeometry width="50" height="50" relative="1" as="geometry">
                        <mxPoint x="-138" y="-100.5" as="sourcePoint"/>
                        <mxPoint x="-298" y="-100.5" as="targetPoint"/>
                    </mxGeometry>
                </mxCell>
                <mxCell id="93" value="&lt;b&gt;customer&lt;/b&gt;" style="html=1;dashed=0;whitespace=wrap;shape=partialRectangle;right=0;left=0;labelBackgroundColor=none;fontSize=15;fontColor=#000000;strokeColor=#000000;fillColor=#FFFFFF;" parent="1" vertex="1">
                    <mxGeometry x="-118" y="-580" width="100" height="30" as="geometry"/>
                </mxCell>
                <mxCell id="94" value="&lt;b&gt;customer&lt;/b&gt;" style="html=1;dashed=0;whitespace=wrap;shape=partialRectangle;right=0;left=0;labelBackgroundColor=none;fontSize=15;fontColor=#000000;strokeColor=#000000;fillColor=#FFFFFF;" parent="1" vertex="1">
                    <mxGeometry x="-118" y="-490" width="100" height="30" as="geometry"/>
                </mxCell>
                <mxCell id="95" value="&lt;b&gt;product&lt;/b&gt;" style="html=1;dashed=0;whitespace=wrap;shape=partialRectangle;right=0;left=0;labelBackgroundColor=none;fontSize=15;fontColor=#000000;strokeColor=#000000;fillColor=#FFFFFF;" parent="1" vertex="1">
                    <mxGeometry x="-118" y="-400" width="100" height="30" as="geometry"/>
                </mxCell>
                <mxCell id="96" value="&lt;b&gt;customer&lt;/b&gt;" style="html=1;dashed=0;whitespace=wrap;shape=partialRectangle;right=0;left=0;labelBackgroundColor=none;fontSize=15;fontColor=#000000;strokeColor=#000000;fillColor=#FFFFFF;" parent="1" vertex="1">
                    <mxGeometry x="-118" y="-310" width="100" height="30" as="geometry"/>
                </mxCell>
                <mxCell id="97" value="&lt;b&gt;order&lt;/b&gt;" style="html=1;dashed=0;whitespace=wrap;shape=partialRectangle;right=0;left=0;labelBackgroundColor=none;fontSize=15;fontColor=#000000;strokeColor=#000000;fillColor=#FFFFFF;" parent="1" vertex="1">
                    <mxGeometry x="-118" y="-220" width="100" height="30" as="geometry"/>
                </mxCell>
                <mxCell id="98" value="&lt;b&gt;payment&lt;/b&gt;" style="html=1;dashed=0;whitespace=wrap;shape=partialRectangle;right=0;left=0;labelBackgroundColor=none;fontSize=15;fontColor=#000000;strokeColor=#000000;fillColor=#FFFFFF;" parent="1" vertex="1">
                    <mxGeometry x="-118" y="-130" width="100" height="30" as="geometry"/>
                </mxCell>
                <mxCell id="99" value="&lt;font style=&quot;font-size: 13px&quot;&gt;Acknowledgement&lt;/font&gt;" style="text;html=1;align=right;verticalAlign=middle;resizable=0;points=[];autosize=1;strokeColor=none;fillColor=none;fontSize=15;fontColor=#000000;fontStyle=1" parent="1" vertex="1">
                    <mxGeometry x="-288" y="-579" width="130" height="20" as="geometry"/>
                </mxCell>
                <mxCell id="100" value="&lt;font style=&quot;font-size: 13px&quot;&gt;Acknowledgement&lt;/font&gt;" style="text;html=1;align=right;verticalAlign=middle;resizable=0;points=[];autosize=1;strokeColor=none;fillColor=none;fontSize=15;fontColor=#000000;fontStyle=1" parent="1" vertex="1">
                    <mxGeometry x="-288" y="-480" width="130" height="20" as="geometry"/>
                </mxCell>
                <mxCell id="101" value="&lt;font style=&quot;font-size: 13px&quot;&gt;Acknowledgement&lt;/font&gt;" style="text;html=1;align=right;verticalAlign=middle;resizable=0;points=[];autosize=1;strokeColor=none;fillColor=none;fontSize=15;fontColor=#000000;fontStyle=1" parent="1" vertex="1">
                    <mxGeometry x="-288" y="-390" width="130" height="20" as="geometry"/>
                </mxCell>
                <mxCell id="102" value="&lt;font style=&quot;font-size: 13px&quot;&gt;Acknowledgement&lt;/font&gt;" style="text;html=1;align=right;verticalAlign=middle;resizable=0;points=[];autosize=1;strokeColor=none;fillColor=none;fontSize=15;fontColor=#000000;fontStyle=1" parent="1" vertex="1">
                    <mxGeometry x="-288" y="-300" width="130" height="20" as="geometry"/>
                </mxCell>
                <mxCell id="103" value="&lt;font style=&quot;font-size: 13px&quot;&gt;Acknowledgement&lt;/font&gt;" style="text;html=1;align=right;verticalAlign=middle;resizable=0;points=[];autosize=1;strokeColor=none;fillColor=none;fontSize=15;fontColor=#000000;fontStyle=1" parent="1" vertex="1">
                    <mxGeometry x="-288" y="-210" width="130" height="20" as="geometry"/>
                </mxCell>
                <mxCell id="104" value="&lt;font style=&quot;font-size: 13px&quot;&gt;Acknowledgement&lt;/font&gt;" style="text;html=1;align=right;verticalAlign=middle;resizable=0;points=[];autosize=1;strokeColor=none;fillColor=none;fontSize=15;fontColor=#000000;fontStyle=1" parent="1" vertex="1">
                    <mxGeometry x="-288" y="-120" width="130" height="20" as="geometry"/>
                </mxCell>
                <mxCell id="105" value="&lt;b&gt;Request for Registration&lt;/b&gt;" style="text;html=1;align=center;verticalAlign=middle;resizable=0;points=[];autosize=1;strokeColor=none;fillColor=none;fontSize=13;fontColor=#000000;" parent="1" vertex="1">
                    <mxGeometry x="-301" y="-597" width="170" height="20" as="geometry"/>
                </mxCell>
                <mxCell id="106" value="&lt;b&gt;Check for Login&lt;/b&gt;" style="text;html=1;align=center;verticalAlign=middle;resizable=0;points=[];autosize=1;strokeColor=none;fillColor=none;fontSize=13;fontColor=#000000;" parent="1" vertex="1">
                    <mxGeometry x="-278" y="-510" width="110" height="20" as="geometry"/>
                </mxCell>
                <mxCell id="107" value="&lt;b&gt;Request for Registration&lt;/b&gt;" style="text;html=1;align=center;verticalAlign=middle;resizable=0;points=[];autosize=1;strokeColor=none;fillColor=none;fontSize=13;fontColor=#000000;" parent="1" vertex="1">
                    <mxGeometry x="-588" y="-594" width="170" height="20" as="geometry"/>
                </mxCell>
                <mxCell id="108" value="&lt;span style=&quot;color: rgb(0 , 0 , 0) ; font-family: &amp;#34;helvetica&amp;#34; ; font-size: 13px ; font-style: normal ; font-weight: 700 ; letter-spacing: normal ; text-align: right ; text-indent: 0px ; text-transform: none ; word-spacing: 0px ; display: inline ; float: none&quot;&gt;Acknowledgement&lt;/span&gt;" style="text;whiteSpace=wrap;html=1;fontSize=13;fontColor=#000000;" parent="1" vertex="1">
                    <mxGeometry x="-568" y="-576" width="140" height="30" as="geometry"/>
                </mxCell>
                <mxCell id="109" value="&lt;b&gt;username,password&lt;/b&gt;" style="text;html=1;align=center;verticalAlign=middle;resizable=0;points=[];autosize=1;strokeColor=none;fillColor=none;fontSize=13;fontColor=#000000;" parent="1" vertex="1">
                    <mxGeometry x="-588" y="-504" width="140" height="20" as="geometry"/>
                </mxCell>
                <mxCell id="110" value="&lt;b&gt;Acknowledgement&lt;/b&gt;" style="text;html=1;align=center;verticalAlign=middle;resizable=0;points=[];autosize=1;strokeColor=none;fillColor=none;fontSize=13;fontColor=#000000;" parent="1" vertex="1">
                    <mxGeometry x="-583" y="-485" width="130" height="20" as="geometry"/>
                </mxCell>
                <mxCell id="111" value="&lt;b&gt;Acknowledgement&lt;/b&gt;" style="text;html=1;align=center;verticalAlign=middle;resizable=0;points=[];autosize=1;strokeColor=none;fillColor=none;fontSize=13;fontColor=#000000;" parent="1" vertex="1">
                    <mxGeometry x="-573" y="-402" width="130" height="20" as="geometry"/>
                </mxCell>
                <mxCell id="112" value="&lt;b&gt;Acknowledgement&lt;/b&gt;" style="text;html=1;align=center;verticalAlign=middle;resizable=0;points=[];autosize=1;strokeColor=none;fillColor=none;fontSize=13;fontColor=#000000;" parent="1" vertex="1">
                    <mxGeometry x="-573" y="-305" width="130" height="20" as="geometry"/>
                </mxCell>
                <mxCell id="113" value="&lt;b&gt;Acknowledgement&lt;/b&gt;" style="text;html=1;align=center;verticalAlign=middle;resizable=0;points=[];autosize=1;strokeColor=none;fillColor=none;fontSize=13;fontColor=#000000;" parent="1" vertex="1">
                    <mxGeometry x="-573" y="-220" width="130" height="20" as="geometry"/>
                </mxCell>
                <mxCell id="114" value="&lt;b&gt;Acknowledgement&lt;/b&gt;" style="text;html=1;align=center;verticalAlign=middle;resizable=0;points=[];autosize=1;strokeColor=none;fillColor=none;fontSize=13;fontColor=#000000;" parent="1" vertex="1">
                    <mxGeometry x="-572" y="-120" width="130" height="20" as="geometry"/>
                </mxCell>
                <mxCell id="115" value="&lt;b&gt;Searching&lt;/b&gt;" style="text;html=1;align=center;verticalAlign=middle;resizable=0;points=[];autosize=1;strokeColor=none;fillColor=none;fontSize=13;fontColor=#000000;" parent="1" vertex="1">
                    <mxGeometry x="-558" y="-422" width="80" height="20" as="geometry"/>
                </mxCell>
                <mxCell id="116" value="&lt;b&gt;Search Product&lt;/b&gt;" style="text;html=1;align=center;verticalAlign=middle;resizable=0;points=[];autosize=1;strokeColor=none;fillColor=none;fontSize=13;fontColor=#000000;" parent="1" vertex="1">
                    <mxGeometry x="-278" y="-420" width="110" height="20" as="geometry"/>
                </mxCell>
                <mxCell id="117" value="&lt;b&gt;&lt;font style=&quot;font-size: 13px&quot; color=&quot;#000000&quot;&gt;Manage Account&lt;/font&gt;&lt;/b&gt;" style="text;html=1;align=center;verticalAlign=middle;resizable=0;points=[];autosize=1;strokeColor=none;fillColor=none;" parent="1" vertex="1">
                    <mxGeometry x="-567" y="-325" width="120" height="20" as="geometry"/>
                </mxCell>
                <mxCell id="118" value="&lt;b&gt;Add/Update&lt;/b&gt;" style="text;html=1;align=center;verticalAlign=middle;resizable=0;points=[];autosize=1;strokeColor=none;fillColor=none;fontSize=13;fontColor=#000000;" parent="1" vertex="1">
                    <mxGeometry x="-268" y="-330" width="90" height="20" as="geometry"/>
                </mxCell>
                <mxCell id="119" value="&lt;b&gt;Buy&amp;nbsp;&lt;/b&gt;" style="text;html=1;align=center;verticalAlign=middle;resizable=0;points=[];autosize=1;strokeColor=none;fillColor=none;fontSize=13;fontColor=#000000;" parent="1" vertex="1">
                    <mxGeometry x="-538" y="-240" width="40" height="20" as="geometry"/>
                </mxCell>
                <mxCell id="121" value="&lt;b&gt;Buy Product&lt;/b&gt;" style="text;html=1;align=center;verticalAlign=middle;resizable=0;points=[];autosize=1;strokeColor=none;fillColor=none;fontSize=13;fontColor=#000000;" parent="1" vertex="1">
                    <mxGeometry x="-275" y="-240" width="90" height="20" as="geometry"/>
                </mxCell>
                <mxCell id="122" value="&lt;b&gt;Payment&lt;/b&gt;" style="text;html=1;align=center;verticalAlign=middle;resizable=0;points=[];autosize=1;strokeColor=none;fillColor=none;fontSize=13;fontColor=#000000;" parent="1" vertex="1">
                    <mxGeometry x="-553" y="-140" width="70" height="20" as="geometry"/>
                </mxCell>
                <mxCell id="123" value="&lt;b&gt;Make Payment&lt;/b&gt;" style="text;html=1;align=center;verticalAlign=middle;resizable=0;points=[];autosize=1;strokeColor=none;fillColor=none;fontSize=13;fontColor=#000000;" parent="1" vertex="1">
                    <mxGeometry x="-278" y="-150" width="110" height="20" as="geometry"/>
                </mxCell>
            </root>
        </mxGraphModel>
    </diagram>
</mxfile>